<svg width="166" height="29.959" xmlns="http://www.w3.org/2000/svg">

 <g>
  <title>background</title>
  <rect fill="none" id="canvas_background" height="602" width="802" y="-1" x="-1"/>
 </g>
 <g>
  <title>Layer 1</title>
  <path fill="#756355" id="svg_1" d="m43.944,11.677l-4.069,0l0,-2.73l11.114,0l0,2.73l-4.068,0l0,10.726l-2.959,0l0,-10.726l-0.018,0zm11.977,-2.73l2.959,0l0,5.3l5.464,0l0,-5.3l2.958,0l0,13.456l-2.958,0l0,-5.389l-5.46,0l0,5.389l-2.963,0l0,-13.456zm17.419,0l2.959,0l0,13.456l-2.955,0l-0.004,-13.456zm9.017,0l6.147,0a5.419,5.419 0 0 1 3.928,1.356a4.192,4.192 0 0 1 1.145,3.082l0,0.036a4.158,4.158 0 0 1 -2.871,4.156l3.293,4.791l-3.455,0l-2.9,-4.28l-2.345,0l0,4.315l-2.955,0l0,-13.456l0.013,0zm5.936,6.53c1.444,0 2.272,-0.775 2.272,-1.884l0,-0.031c0,-1.251 -0.863,-1.92 -2.343,-1.92l-2.941,0l0,3.857l2.994,0l0.018,-0.022zm10.638,-6.53l5.249,0c4.227,0 7.133,2.906 7.133,6.675l0,0.035c0,3.77 -2.906,6.711 -7.133,6.711l-5.249,0l0,-13.421zm2.924,2.66l0,8.084l2.272,0a3.819,3.819 0 0 0 4.051,-4.014l0,-0.037a3.865,3.865 0 0 0 -4.051,-4.051l-2.272,0l0,0.018zm12.945,-2.66l3.17,0l2.783,9.106l3.03,-9.141l2.553,0l3.03,9.141l2.783,-9.106l3.1,0l-4.58,13.544l-2.571,0l-3.083,-8.806l-3.029,8.792l-2.589,0l-4.597,-13.53zm28.18,-0.088l2.73,0l5.76,13.544l-3.082,0l-1.233,-3.026l-5.689,0l-1.233,3.029l-3.047,0l5.794,-13.547zm3.083,7.908l-1.8,-4.35l-1.8,4.35l3.6,0zm11.8,0.317l-5.143,-8.137l3.452,0l3.206,5.39l3.258,-5.39l3.364,0l-5.156,8.084l0,5.372l-2.959,0l0,-5.319l-0.022,0zm-142.874,-16.979l-0.863,0a0.441,0.441 0 0 0 -0.212,0.036l-0.211,0c-0.053,0 -0.159,0.035 -0.211,0.035l-0.212,0a0.448,0.448 0 0 0 -0.211,0.035c-0.053,0 -0.159,0.035 -0.211,0.035s-0.159,0.036 -0.212,0.036s-0.158,0.035 -0.211,0.035s-0.159,0.035 -0.212,0.035a0.919,0.919 0 0 0 -0.211,0.053a0.448,0.448 0 0 0 -0.211,0.035a0.968,0.968 0 0 1 -0.212,0.053c-0.052,0.018 -0.158,0.035 -0.211,0.053s-0.158,0.035 -0.211,0.053a0.912,0.912 0 0 1 -0.212,0.052c-0.052,0.018 -0.123,0.053 -0.211,0.088a0.871,0.871 0 0 1 -0.211,0.053c-0.053,0.018 -0.159,0.036 -0.212,0.053a0.96,0.96 0 0 1 -0.211,0.053a0.919,0.919 0 0 1 -0.211,0.053a1.3,1.3 0 0 1 -0.212,0.088a1.281,1.281 0 0 1 -0.211,0.088a1.281,1.281 0 0 1 -0.211,0.088a0.968,0.968 0 0 1 -0.212,0.053l-0.176,0.088c-0.053,0.035 -0.158,0.053 -0.211,0.088l-0.176,0.088a1.3,1.3 0 0 1 -0.212,0.088a0.538,0.538 0 0 0 -0.176,0.123l-0.176,0.088l-0.176,0.089c-0.053,0.035 -0.123,0.088 -0.176,0.123a0.528,0.528 0 0 0 -0.176,0.123a0.542,0.542 0 0 0 -0.177,0.123c-0.052,0.036 -0.123,0.088 -0.176,0.124s-0.123,0.088 -0.176,0.123a0.538,0.538 0 0 0 -0.176,0.123c-0.053,0.036 -0.123,0.088 -0.176,0.124a0.524,0.524 0 0 0 -0.176,0.123a0.717,0.717 0 0 0 -0.176,0.158c-0.053,0.036 -0.124,0.088 -0.176,0.124s-0.124,0.088 -0.177,0.123a0.459,0.459 0 0 0 -0.158,0.158c-0.053,0.053 -0.123,0.089 -0.159,0.159a1.556,1.556 0 0 0 -0.176,0.158c-0.053,0.053 -0.123,0.089 -0.158,0.159c-0.053,0.053 -0.124,0.088 -0.159,0.159c-0.053,0.052 -0.123,0.088 -0.158,0.158c-0.053,0.053 -0.124,0.088 -0.159,0.159l-0.158,0.158c-0.053,0.053 -0.088,0.123 -0.159,0.159c-0.053,0.052 -0.088,0.123 -0.158,0.158l-0.159,0.159c-0.053,0.052 -0.123,0.088 -0.158,0.158c-0.053,0.053 -0.088,0.123 -0.159,0.159a1.556,1.556 0 0 1 -0.158,0.176a1.113,1.113 0 0 0 -0.124,0.176c-0.052,0.053 -0.088,0.123 -0.158,0.158c-0.035,0.053 -0.088,0.124 -0.123,0.177a0.764,0.764 0 0 1 -0.159,0.176c-0.035,0.052 -0.088,0.123 -0.123,0.176a0.7,0.7 0 0 1 -0.159,0.176c-0.035,0.053 -0.088,0.123 -0.123,0.176s-0.088,0.123 -0.123,0.176s-0.088,0.123 -0.124,0.176a0.514,0.514 0 0 1 -0.123,0.176a0.542,0.542 0 0 1 -0.123,0.177c-0.035,0.052 -0.088,0.123 -0.124,0.176l-0.088,0.176c-0.035,0.053 -0.088,0.123 -0.123,0.176l-0.088,0.176a1.281,1.281 0 0 0 -0.088,0.211a1.3,1.3 0 0 0 -0.088,0.212c-0.035,0.053 -0.088,0.123 -0.123,0.176a1.2,1.2 0 0 0 -0.088,0.211a1.214,1.214 0 0 0 -0.088,0.212a1.238,1.238 0 0 0 -0.089,0.211a1.375,1.375 0 0 0 -0.088,0.211a0.912,0.912 0 0 0 -0.052,0.212a1.238,1.238 0 0 0 -0.089,0.211a1.375,1.375 0 0 0 -0.088,0.211a1.392,1.392 0 0 0 -0.088,0.212a0.9,0.9 0 0 0 -0.052,0.215a0.87,0.87 0 0 0 -0.053,0.211a0.867,0.867 0 0 0 -0.053,0.212a0.96,0.96 0 0 0 -0.053,0.211a0.974,0.974 0 0 0 -0.053,0.211a0.475,0.475 0 0 0 -0.053,0.212a0.448,0.448 0 0 0 -0.035,0.211a0.968,0.968 0 0 0 -0.053,0.212c0,0.052 -0.035,0.158 -0.035,0.211s-0.038,0.154 -0.038,0.209a0.452,0.452 0 0 1 -0.035,0.212c0,0.052 -0.036,0.158 -0.036,0.211s-0.035,0.158 -0.035,0.211a0.452,0.452 0 0 1 -0.035,0.212c0,0.053 -0.035,0.158 -0.035,0.211l0,0.211c0,0.053 -0.036,0.159 -0.036,0.212s-0.035,0.158 -0.035,0.211l0,1.671c0,0.053 0.035,0.159 0.035,0.212s0.036,0.158 0.036,0.211l0,0.423c0,0.053 0.035,0.158 0.035,0.211s0.035,0.159 0.035,0.211a0.452,0.452 0 0 0 0.035,0.212a0.96,0.96 0 0 0 0.053,0.211a0.452,0.452 0 0 0 0.035,0.212a0.974,0.974 0 0 0 0.053,0.211a0.907,0.907 0 0 0 0.053,0.211a0.452,0.452 0 0 1 0.035,0.212a0.848,0.848 0 0 1 0.053,0.211a0.471,0.471 0 0 1 0.053,0.211a0.452,0.452 0 0 1 0.035,0.212a1.245,1.245 0 0 1 0.088,0.211a0.87,0.87 0 0 1 0.053,0.211a0.968,0.968 0 0 1 0.053,0.212a0.96,0.96 0 0 1 0.053,0.211a1.281,1.281 0 0 1 0.088,0.211c0.035,0.053 0.053,0.159 0.088,0.212a0.96,0.96 0 0 1 0.053,0.211c0.017,0.053 0.053,0.123 0.088,0.211c0.035,0.053 0.053,0.159 0.088,0.212l0.088,0.176c0.035,0.053 0.053,0.158 0.088,0.211l0.088,0.176l0.088,0.177a1.245,1.245 0 0 1 0.088,0.211l0.088,0.176l0.088,0.176c0.036,0.053 0.088,0.123 0.124,0.176a1.392,1.392 0 0 1 0.088,0.212c0.035,0.052 0.088,0.123 0.123,0.176a0.538,0.538 0 0 0 0.123,0.176a0.543,0.543 0 0 0 0.124,0.176c0.035,0.053 0.088,0.123 0.123,0.176s0.088,0.123 0.123,0.176s0.088,0.124 0.123,0.176s0.089,0.124 0.124,0.177s0.088,0.123 0.123,0.176s0.088,0.123 0.123,0.176a0.723,0.723 0 0 0 0.159,0.176c0.053,0.053 0.088,0.123 0.158,0.158l0.159,0.159a1.043,1.043 0 0 1 0.123,0.176c0.053,0.053 0.123,0.088 0.159,0.159c0.052,0.052 0.088,0.123 0.158,0.158a1.4,1.4 0 0 0 0.159,0.176a0.453,0.453 0 0 1 0.158,0.159c0.053,0.053 0.088,0.123 0.159,0.158l0.158,0.159l0.159,0.158a1.113,1.113 0 0 0 0.176,0.124l0.158,0.158a1.049,1.049 0 0 0 0.177,0.123l0.158,0.159a1.043,1.043 0 0 0 0.176,0.123a0.7,0.7 0 0 1 0.176,0.159c0.053,0.035 0.124,0.088 0.176,0.123s0.124,0.088 0.177,0.123s0.123,0.088 0.176,0.124s0.123,0.088 0.176,0.123s0.123,0.088 0.176,0.123s0.123,0.088 0.176,0.123a0.543,0.543 0 0 1 0.176,0.124a0.539,0.539 0 0 1 0.176,0.123c0.053,0.035 0.124,0.088 0.176,0.123l0.177,0.088a0.553,0.553 0 0 1 0.176,0.124a1.281,1.281 0 0 0 0.211,0.088c0.053,0.035 0.123,0.088 0.176,0.123l0.176,0.088a1.3,1.3 0 0 0 0.212,0.088a1.245,1.245 0 0 0 0.211,0.088a1.281,1.281 0 0 0 0.211,0.088a0.867,0.867 0 0 0 0.212,0.053c0.053,0.018 0.123,0.053 0.211,0.088a1.281,1.281 0 0 0 0.211,0.088a0.475,0.475 0 0 0 0.212,0.053a0.471,0.471 0 0 0 0.211,0.053a0.474,0.474 0 0 0 0.211,0.053a0.968,0.968 0 0 0 0.212,0.053a0.957,0.957 0 0 0 0.211,0.052a0.867,0.867 0 0 0 0.212,0.053a0.9,0.9 0 0 0 0.211,0.053a0.96,0.96 0 0 0 0.211,0.053c0.053,0.018 0.159,0.035 0.212,0.053a0.9,0.9 0 0 0 0.211,0.035a0.96,0.96 0 0 0 0.211,0.053a0.915,0.915 0 0 1 0.212,0.053a0.45,0.45 0 0 1 0.211,0.035a0.907,0.907 0 0 1 0.211,0.053c0.053,0 0.159,0.035 0.212,0.035s0.158,0.035 0.211,0.035s0.159,0.035 0.211,0.035s0.159,0.036 0.212,0.036s0.158,0.035 0.211,0.035l0.211,0c0.053,0 0.159,0.035 0.212,0.035l1.462,0a0.448,0.448 0 0 0 0.211,-0.035l0.423,0c0.053,0 0.158,-0.035 0.211,-0.035l0.211,0c0.053,0 0.159,-0.036 0.212,-0.036s0.158,-0.035 0.211,-0.035s0.159,-0.035 0.211,-0.035s0.159,-0.035 0.212,-0.035a0.448,0.448 0 0 0 0.211,-0.035a0.968,0.968 0 0 0 0.212,-0.053a0.974,0.974 0 0 0 0.211,-0.053c0.053,-0.018 0.158,0 0.211,-0.035a0.462,0.462 0 0 1 0.212,-0.053a0.446,0.446 0 0 1 0.211,-0.035a0.458,0.458 0 0 1 0.211,-0.053a0.867,0.867 0 0 1 0.212,-0.053c0.052,-0.018 0.158,-0.035 0.211,-0.053a1.281,1.281 0 0 1 0.211,-0.088a0.968,0.968 0 0 1 0.212,-0.053a1.281,1.281 0 0 1 0.211,-0.088a0.974,0.974 0 0 1 0.211,-0.053c0.053,-0.017 0.124,-0.053 0.212,-0.088c0.053,-0.035 0.158,-0.053 0.211,-0.088a1.281,1.281 0 0 1 0.211,-0.088a1.3,1.3 0 0 1 0.212,-0.088a1.281,1.281 0 0 1 0.211,-0.088a1.26,1.26 0 0 1 0.212,-0.088l0.176,-0.088a1.245,1.245 0 0 1 0.211,-0.088l0.176,-0.088l0.176,-0.088l0.176,-0.088c0.053,-0.036 0.124,-0.089 0.177,-0.124l0.176,-0.088c0.052,-0.035 0.123,-0.088 0.176,-0.123a0.538,0.538 0 0 0 0.176,-0.123a0.543,0.543 0 0 0 0.176,-0.124c0.053,-0.035 0.123,-0.088 0.176,-0.123s0.123,-0.088 0.176,-0.123s0.124,-0.088 0.176,-0.124s0.124,-0.088 0.177,-0.123a0.735,0.735 0 0 0 0.176,-0.158a0.742,0.742 0 0 0 0.176,-0.159a1.043,1.043 0 0 1 0.176,-0.123a1.4,1.4 0 0 0 0.176,-0.159l0.159,-0.158l0.158,-0.159a1.475,1.475 0 0 0 0.176,-0.158l0.159,-0.159l0.158,-0.158l0.159,-0.159c0.053,-0.053 0.088,-0.123 0.158,-0.158c0.053,-0.053 0.124,-0.088 0.159,-0.159c0.053,-0.053 0.088,-0.123 0.158,-0.158a1.338,1.338 0 0 1 0.159,-0.176c0.07,-0.053 0.088,-0.124 0.158,-0.177l0.159,-0.158a1.043,1.043 0 0 0 0.123,-0.176c0.035,-0.053 0.088,-0.123 0.123,-0.176s0.088,-0.124 0.124,-0.176a0.72,0.72 0 0 1 0.158,-0.177a0.549,0.549 0 0 1 0.123,-0.176c0.036,-0.053 0.089,-0.123 0.124,-0.176s0.088,-0.123 0.123,-0.176a0.538,0.538 0 0 1 0.123,-0.176c0.036,-0.053 0.088,-0.123 0.124,-0.176s0.088,-0.124 0.123,-0.176a0.528,0.528 0 0 1 0.123,-0.176l0.088,-0.177l0.088,-0.176l0.088,-0.176c0.036,-0.053 0.088,-0.123 0.124,-0.176a1.281,1.281 0 0 0 0.088,-0.211a1.3,1.3 0 0 0 0.088,-0.212a1.281,1.281 0 0 0 0.088,-0.211a1.281,1.281 0 0 0 0.088,-0.211a1.3,1.3 0 0 0 0.088,-0.212a1.281,1.281 0 0 0 0.088,-0.211a0.474,0.474 0 0 0 0.053,-0.211a1.3,1.3 0 0 0 0.088,-0.212a0.471,0.471 0 0 0 0.053,-0.211a0.968,0.968 0 0 0 0.053,-0.212a1.333,1.333 0 0 0 0.088,-0.211a0.471,0.471 0 0 0 0.053,-0.211a0.452,0.452 0 0 0 0.035,-0.212a0.468,0.468 0 0 0 0.053,-0.211a0.9,0.9 0 0 0 0.052,-0.211c0.018,-0.053 0.036,-0.159 0.053,-0.212a0.856,0.856 0 0 0 0.036,-0.211a0.45,0.45 0 0 0 0.035,-0.211a0.915,0.915 0 0 1 0.053,-0.212c0,-0.053 0.035,-0.158 0.035,-0.211s0.035,-0.159 0.035,-0.211a0.452,0.452 0 0 1 0.035,-0.212c0,-0.053 0.035,-0.158 0.035,-0.211s0.036,-0.159 0.036,-0.212a0.45,0.45 0 0 1 0.035,-0.211a0.448,0.448 0 0 1 0.035,-0.211l0,-0.212c0,-0.052 0.035,-0.158 0.035,-0.211l0,-0.211c0,-0.053 0.036,-0.159 0.036,-0.212l0,-1.461a0.441,0.441 0 0 0 -0.036,-0.212l0,-0.282c0,-0.053 -0.035,-0.158 -0.035,-0.211s-0.035,-0.159 -0.035,-0.211a0.452,0.452 0 0 0 -0.035,-0.212c0,-0.053 -0.036,-0.158 -0.036,-0.211a0.446,0.446 0 0 0 -0.035,-0.211a0.915,0.915 0 0 0 -0.048,-0.212a0.957,0.957 0 0 0 -0.054,-0.211c0,-0.053 -0.036,-0.159 -0.036,-0.212a0.446,0.446 0 0 1 -0.035,-0.211a0.96,0.96 0 0 1 -0.053,-0.211a0.475,0.475 0 0 1 -0.053,-0.212a0.892,0.892 0 0 1 -0.052,-0.211a0.859,0.859 0 0 1 -0.053,-0.213a0.968,0.968 0 0 1 -0.053,-0.212c-0.018,-0.052 -0.035,-0.158 -0.053,-0.211a0.919,0.919 0 0 1 -0.053,-0.211a1.3,1.3 0 0 1 -0.088,-0.212a0.96,0.96 0 0 1 -0.053,-0.211a1.375,1.375 0 0 1 -0.088,-0.211a0.968,0.968 0 0 1 -0.053,-0.212c-0.017,-0.053 -0.052,-0.123 -0.088,-0.211a1.375,1.375 0 0 1 -0.088,-0.211l-0.088,-0.177a1.245,1.245 0 0 1 -0.088,-0.211l-0.088,-0.176c-0.035,-0.053 -0.053,-0.159 -0.088,-0.211l-0.088,-0.177c-0.035,-0.052 -0.088,-0.123 -0.123,-0.176l-0.084,-0.17a0.543,0.543 0 0 0 -0.124,-0.176a0.524,0.524 0 0 0 -0.123,-0.176c-0.035,-0.053 -0.088,-0.123 -0.123,-0.176s-0.088,-0.123 -0.123,-0.176a0.533,0.533 0 0 0 -0.124,-0.176c-0.035,-0.053 -0.088,-0.124 -0.123,-0.177s-0.088,-0.123 -0.123,-0.176s-0.088,-0.123 -0.124,-0.176a0.524,0.524 0 0 0 -0.123,-0.176a0.45,0.45 0 0 0 -0.158,-0.158c-0.036,-0.053 -0.089,-0.124 -0.124,-0.177a1,1 0 0 1 -0.123,-0.176c-0.053,-0.053 -0.088,-0.123 -0.159,-0.158c-0.052,-0.053 -0.123,-0.088 -0.158,-0.159a1.4,1.4 0 0 0 -0.159,-0.176c-0.052,-0.053 -0.123,-0.088 -0.158,-0.158l-0.159,-0.159a1.393,1.393 0 0 0 -0.158,-0.176c-0.053,-0.053 -0.123,-0.088 -0.159,-0.159c-0.052,-0.052 -0.123,-0.088 -0.158,-0.158l-0.159,-0.159c-0.052,-0.052 -0.123,-0.088 -0.158,-0.158c-0.053,-0.053 -0.123,-0.088 -0.159,-0.159a1.393,1.393 0 0 1 -0.176,-0.158l-0.165,-0.167a1.151,1.151 0 0 0 -0.176,-0.123a0.72,0.72 0 0 1 -0.177,-0.158c-0.052,-0.036 -0.123,-0.088 -0.176,-0.124s-0.123,-0.088 -0.176,-0.123s-0.123,-0.088 -0.176,-0.123s-0.123,-0.088 -0.176,-0.124s-0.123,-0.088 -0.176,-0.123s-0.123,-0.088 -0.176,-0.123s-0.124,-0.088 -0.176,-0.123s-0.124,-0.089 -0.177,-0.124l-0.176,-0.088a0.538,0.538 0 0 1 -0.176,-0.123c-0.053,-0.035 -0.123,-0.088 -0.176,-0.123s-0.123,-0.088 -0.176,-0.124a1.281,1.281 0 0 0 -0.211,-0.088l-0.177,-0.088l-0.176,-0.088l-0.176,-0.088a1.281,1.281 0 0 0 -0.211,-0.088c-0.053,-0.035 -0.159,-0.053 -0.212,-0.088a1.245,1.245 0 0 0 -0.211,-0.088a1.281,1.281 0 0 0 -0.211,-0.088a0.968,0.968 0 0 0 -0.212,-0.053c-0.052,-0.018 -0.123,-0.053 -0.211,-0.088a0.96,0.96 0 0 0 -0.211,-0.053a0.475,0.475 0 0 0 -0.212,-0.053a0.468,0.468 0 0 0 -0.211,-0.053a0.916,0.916 0 0 0 -0.211,-0.052a0.462,0.462 0 0 0 -0.212,-0.053a0.96,0.96 0 0 0 -0.211,-0.053a0.87,0.87 0 0 0 -0.211,-0.035a0.867,0.867 0 0 0 -0.212,-0.053a1.339,1.339 0 0 0 -0.3,-0.053c-0.053,0 -0.159,-0.035 -0.212,-0.035s-0.158,-0.035 -0.211,-0.035s-0.158,-0.036 -0.211,-0.036s-0.159,-0.035 -0.212,-0.035a0.45,0.45 0 0 1 -0.211,-0.035c-0.053,0 -0.158,-0.035 -0.211,-0.035a0.441,0.441 0 0 1 -0.212,-0.036l-0.211,0a0.446,0.446 0 0 1 -0.211,-0.035l-0.212,0c-0.053,0 -0.158,-0.035 -0.211,-0.035a0.446,0.446 0 0 1 -0.211,-0.035l-0.454,0.109zm5.9,14.83c-0.035,0.088 -0.053,0.088 -0.123,0.176l-0.124,0.177l-0.123,0.176l-0.123,0.176l-0.124,0.176l-0.123,0.176l-0.123,0.176l-0.123,0.176l-0.124,0.177l-0.123,0.176l-0.123,0.176l-0.124,0.176l-0.123,0.176l-0.123,0.176c-0.053,0.088 -0.088,0.088 -0.159,0.159l-0.123,0.176l-0.123,0.176l-0.123,0.176l-0.124,0.176l-0.123,0.176l-0.123,0.176l-0.124,0.177l-0.123,0.176l-0.123,0.176l-0.124,0.176l-0.123,0.176l-0.123,0.18c-0.053,0.088 -0.088,0.088 -0.159,0.159l-0.123,0.176l-0.123,0.176l-0.123,0.176l-0.124,0.176l-0.123,0.176l-0.123,0.176l-0.124,0.177l-0.123,0.176l-0.123,0.176l-0.123,0.176l-0.124,0.176l-0.123,0.176l-0.123,0.176l-0.124,0.176l-0.123,0.177l-0.123,0.176l-0.124,0.176l-0.123,0.176l-0.123,0.176c-0.053,0.088 -0.035,0.176 -0.123,0.176c-0.124,0 -0.053,-0.088 -0.124,-0.176l-0.123,-0.176l-0.123,-0.176l-0.124,-0.176l-0.123,-0.176l-0.123,-0.177l-0.123,-0.176l-0.124,-0.176l-0.123,-0.176c-0.176,-0.211 -0.176,-0.211 -0.247,-0.3l-0.123,-0.176l-0.123,-0.177l-0.123,-0.176l-0.124,-0.176l-0.123,-0.176l-0.123,-0.176l-0.124,-0.176l-0.123,-0.176l-0.123,-0.176l-0.123,-0.177l-0.124,-0.176l-0.123,-0.176l-0.121,-0.182l-0.124,-0.176l-0.123,-0.176l-0.123,-0.176l-0.123,-0.176l-0.124,-0.177l-0.123,-0.176l-0.123,-0.176l-0.124,-0.176l-0.123,-0.176l-0.123,-0.176c-0.123,0.035 -0.123,0.035 -0.176,-0.053l-0.124,-0.176l-0.123,-0.176l-0.123,-0.176l-0.123,-0.177l-0.124,-0.176l-0.123,-0.176l-0.123,-0.176l-0.128,-0.173l-0.123,-0.176l-0.123,-0.176l-0.123,-0.176l-0.124,-0.177l-0.123,-0.176c-0.053,-0.088 -0.088,-0.053 -0.123,-0.176c-0.036,-0.088 0,-0.123 0,-0.211l0,-0.846c0,-0.123 -0.036,-0.123 -0.036,-0.211l0,-2.941c0,-0.124 -0.035,-0.124 -0.035,-0.212l0,-0.634c0,-0.123 0.035,-0.123 0.035,-0.211l0,-1.057c0,-0.088 0.036,-0.123 0.036,-0.211c0,-0.123 -0.036,-0.123 -0.036,-0.212c0,-0.123 0.036,-0.123 0.036,-0.211l0,-0.4c0,-0.123 -0.036,-0.123 -0.036,-0.211l0,-0.212c0,-0.088 -0.088,-0.176 0,-0.211s0.088,0.053 0.159,0.158c0.053,-0.052 0.053,-0.052 0.123,0a0.347,0.347 0 0 1 0.159,0.159c0.088,0.053 0.053,0.088 0.158,0.158a0.347,0.347 0 0 1 0.159,0.159a0.341,0.341 0 0 1 0.158,0.159c0.088,0.052 0.053,0.088 0.159,0.158a0.341,0.341 0 0 1 0.158,0.159c0.088,0.052 0.088,0.088 0.159,0.158l0.176,0.123c0.088,0.053 0.053,0.088 0.158,0.159l0.177,0.123c0.088,0.053 0.052,0.088 0.158,0.159s0.053,0.088 0.159,0.158a0.341,0.341 0 0 1 0.158,0.159a0.35,0.35 0 0 1 0.159,0.158c0.088,0.053 0.053,0.088 0.158,0.159a0.35,0.35 0 0 1 0.159,0.158c0.088,0.053 0.053,0.088 0.158,0.159a0.35,0.35 0 0 1 0.163,0.153a0.341,0.341 0 0 1 0.158,0.159a0.35,0.35 0 0 1 0.159,0.158a0.341,0.341 0 0 1 0.158,0.159c0.088,0.053 0.053,0.088 0.159,0.158a0.478,0.478 0 0 1 0.176,0.159a0.343,0.343 0 0 1 0.158,0.158c0.088,0.053 0.053,0.088 0.159,0.159c0.088,0.053 0.053,0.088 0.176,0.123c0.088,0.035 0.123,0 0.211,0l2.519,0c0.123,0 0.123,0.035 0.211,0s0.088,-0.053 0.159,-0.158c0.088,-0.053 0.053,-0.088 0.158,-0.159a0.35,0.35 0 0 0 0.159,-0.158a0.341,0.341 0 0 0 0.158,-0.159c0.089,-0.053 0.053,-0.088 0.159,-0.158a0.343,0.343 0 0 0 0.158,-0.159c0.089,-0.053 0.053,-0.088 0.159,-0.158a0.35,0.35 0 0 0 0.159,-0.159a0.343,0.343 0 0 0 0.158,-0.158a0.347,0.347 0 0 0 0.159,-0.159c0.088,-0.053 0.052,-0.088 0.158,-0.158a0.347,0.347 0 0 0 0.159,-0.159c0.088,-0.053 0.052,-0.088 0.158,-0.159a0.34,0.34 0 0 0 0.159,-0.158a0.341,0.341 0 0 0 0.158,-0.159c0.088,-0.052 0.088,-0.088 0.159,-0.158a0.341,0.341 0 0 0 0.158,-0.159a0.34,0.34 0 0 0 0.159,-0.158a0.341,0.341 0 0 0 0.158,-0.159a0.34,0.34 0 0 0 0.159,-0.158a0.341,0.341 0 0 0 0.158,-0.159a0.34,0.34 0 0 0 0.159,-0.158a0.341,0.341 0 0 0 0.158,-0.159a0.35,0.35 0 0 0 0.159,-0.158c0.088,-0.053 0.053,-0.088 0.158,-0.159a0.35,0.35 0 0 0 0.159,-0.158a0.341,0.341 0 0 0 0.158,-0.159c0.088,-0.053 0.053,-0.211 0.159,-0.158c0.088,0.035 0,0.123 0,0.211l0,3.769c0,0.124 -0.035,0.124 -0.035,0.212l0,1.461c0,0.124 -0.036,0.124 -0.036,0.212c0,0.123 0.036,0.123 0.036,0.211c0,0.123 -0.036,0.123 -0.036,0.212l0,0.634c0,0.123 0.036,0.123 0.036,0.211c0,0.123 -0.036,0.123 -0.036,0.211l0,0.212c0,0.123 -0.035,0.123 0,0.211c0.333,0.405 0.368,0.44 0.333,0.528z"/>
 </g>
</svg>